<svg width="40" height="37" viewBox="0 0 40 37" fill="none" xmlns="http://www.w3.org/2000/svg">
<path d="M35 0.5H5C3.80653 0.5 2.66193 0.974106 1.81802 1.81802C0.974106 2.66193 0.5 3.80653 0.5 5V26C0.5 27.1935 0.974106 28.3381 1.81802 29.182C2.66193 30.0259 3.80653 30.5 5 30.5H35C36.1935 30.5 37.3381 30.0259 38.182 29.182C39.0259 28.3381 39.5 27.1935 39.5 26V5C39.5 3.80653 39.0259 2.66193 38.182 1.81802C37.3381 0.974106 36.1935 0.5 35 0.5ZM36.5 26C36.5 26.3978 36.342 26.7794 36.0607 27.0607C35.7794 27.342 35.3978 27.5 35 27.5H5C4.60218 27.5 4.22064 27.342 3.93934 27.0607C3.65804 26.7794 3.5 26.3978 3.5 26V5C3.5 4.60218 3.65804 4.22064 3.93934 3.93934C4.22064 3.65804 4.60218 3.5 5 3.5H35C35.3978 3.5 35.7794 3.65804 36.0607 3.93934C36.342 4.22064 36.5 4.60218 36.5 5V26ZM27.5 35C27.5 35.3978 27.342 35.7794 27.0607 36.0607C26.7794 36.342 26.3978 36.5 26 36.5H14C13.6022 36.5 13.2206 36.342 12.9393 36.0607C12.658 35.7794 12.5 35.3978 12.5 35C12.5 34.6022 12.658 34.2206 12.9393 33.9393C13.2206 33.658 13.6022 33.5 14 33.5H26C26.3978 33.5 26.7794 33.658 27.0607 33.9393C27.342 34.2206 27.5 34.6022 27.5 35ZM26.8325 14.2512L17.8325 8.25125C17.6065 8.1005 17.3439 8.01393 17.0726 8.00078C16.8013 7.98764 16.5315 8.04841 16.292 8.17662C16.0526 8.30482 15.8524 8.49564 15.7129 8.72872C15.5734 8.96179 15.4998 9.22837 15.5 9.5V21.5C15.4998 21.7716 15.5734 22.0382 15.7129 22.2713C15.8524 22.5044 16.0526 22.6952 16.292 22.8234C16.5315 22.9516 16.8013 23.0124 17.0726 22.9992C17.3439 22.9861 17.6065 22.8995 17.8325 22.7488L26.8325 16.7488C27.0383 16.6118 27.207 16.4262 27.3237 16.2083C27.4404 15.9905 27.5015 15.7471 27.5015 15.5C27.5015 15.2529 27.4404 15.0095 27.3237 14.7917C27.207 14.5738 27.0383 14.3882 26.8325 14.2512ZM18.5 18.6969V12.3125L23.2962 15.5L18.5 18.6969Z" fill="white"/>
</svg>
